HIERARCHY
ROOT Hips
{
	OFFSET 0.00000 0.00000 0.00000
	CHANNELS 6 Xposition Yposition Zposition Zrotation Yrotation Xrotation 
	JOINT LHipJoint
	{
		OFFSET 0 0 0
		CHANNELS 3 Zrotation Yrotation Xrotation
		JOINT LeftHip
		{
			OFFSET 1.39187 -1.60231 0.69152
			CHANNELS 3 Zrotation Yrotation Xrotation
			JOINT LeftKnee
			{
				OFFSET 2.43314 -6.68499 0.00000
				CHANNELS 3 Zrotation Yrotation Xrotation
				JOINT LeftAnkle
				{
					OFFSET 2.32059 -6.37578 0.00000
					CHANNELS 3 Zrotation Yrotation Xrotation
					JOINT LeftToe
					{
						OFFSET 0.23021 -0.63250 1.71305
						CHANNELS 3 Zrotation Yrotation Xrotation
						End Site
						{
							OFFSET 0.00000 -0.00000 0.91647
						}
					}
				}
			}
		}
	}
	JOINT RHipJoint
	{
		OFFSET 0 0 0
		CHANNELS 3 Zrotation Yrotation Xrotation
		JOINT RightHip
		{
			OFFSET -1.19407 -1.60231 0.69152
			CHANNELS 3 Zrotation Yrotation Xrotation
			JOINT RightKnee
			{
				OFFSET -2.44411 -6.71513 0.00000
				CHANNELS 3 Zrotation Yrotation Xrotation
				JOINT RightAnkle
				{
					OFFSET -2.31924 -6.37207 0.00000
					CHANNELS 3 Zrotation Yrotation Xrotation
					JOINT RightToe
					{
						OFFSET -0.19473 -0.53502 1.87724
						CHANNELS 3 Zrotation Yrotation Xrotation
						End Site
						{
							OFFSET -0.00000 -0.00000 0.98293
						}
					}
				}
			}
		}
	}
	JOINT lowerback
	{
		OFFSET 0 0 0
		CHANNELS 3 Zrotation Yrotation Xrotation
		JOINT Chest
		{
			OFFSET -0.01120 1.87307 0.09613
			CHANNELS 3 Zrotation Yrotation Xrotation
			JOINT Chest2
			{
				OFFSET 0.01099 1.87818 0.04834
				CHANNELS 3 Zrotation Yrotation Xrotation
				JOINT lowerneck
				{
					OFFSET 0 0 0
					CHANNELS 3 Zrotation Yrotation Xrotation
					JOINT Neck
					{
						OFFSET 0.01702 1.40324 -0.12579
						CHANNELS 3 Zrotation Yrotation Xrotation
						JOINT Head
						{
							OFFSET -0.04239 1.38587 -0.01614
							CHANNELS 3 Zrotation Yrotation Xrotation
							End Site
							{
								OFFSET -0.02510 1.47031 -0.00154
							}
						}
					}
				}
				JOINT LeftCollar
				{
					OFFSET 0 0 0
					CHANNELS 3 Zrotation Yrotation Xrotation
					JOINT LeftShoulder
					{
						OFFSET 2.95699 0.62343 0.11653
CHANNELS 3 Zrotation Xrotation Yrotation
						JOINT LeftElbow
						{
OFFSET 0 -4.683820 -0.000000
CHANNELS 3 Zrotation Xrotation Yrotation
							JOINT LeftWrist
							{
OFFSET 0 -2.981240 -0.000000
CHANNELS 3 Zrotation Xrotation Yrotation
								JOINT lhand
								{
									OFFSET 0 0 0
CHANNELS 3 Zrotation Xrotation Yrotation
									JOINT LFingers
									{
OFFSET 0 -0.707590 0.000000
CHANNELS 3 Zrotation Xrotation Yrotation
										End Site
										{
OFFSET 0 -0.570480 0.000000
										}
									}
								}
								JOINT LThumb
								{
OFFSET 0 0.000000 0.000000
CHANNELS 3 Zrotation Xrotation Yrotation
									End Site
									{
OFFSET 0 -0.579190 0.579190
									}
								}
							}
						}
					}
				}
				JOINT RightCollar
				{
					OFFSET 0 0 0
					CHANNELS 3 Zrotation Yrotation Xrotation
					JOINT RightShoulder
					{
						OFFSET -2.99027 0.88714 -0.02793
CHANNELS 3 Zrotation Xrotation Yrotation
						JOINT RightElbow
						{
OFFSET 0 -4.758760 -0.000000
CHANNELS 3 Zrotation Xrotation Yrotation
							JOINT RightWrist
							{
OFFSET 0 -2.932930 -0.000000
CHANNELS 3 Zrotation Xrotation Yrotation
								JOINT rhand
								{
									OFFSET 0 0 0
CHANNELS 3 Zrotation Xrotation Yrotation
									JOINT RFingers
									{
OFFSET 0 -0.831750 0.000000
CHANNELS 3 Zrotation Xrotation Yrotation
										End Site
										{
OFFSET 0 -0.670580 0.000000
										}
									}
								}
								JOINT RThumb
								{
OFFSET 0 0.000000 0.000000
CHANNELS 3 Zrotation Xrotation Yrotation
									End Site
									{
OFFSET 0 -0.680820 0.680820
									}
								}
							}
						}
					}
				}
			}
		}
	}
}
MOTION
Frames: 4
Frame Time: 0.008333333333333333
8.245600 27.347200 1.167100 169.071000 -85.551700 -154.034000 0.000000 0.000000 0.000000 -18.431500 -18.211500 -16.011800 1.603200 7.985500 22.670000 0.695000 8.003500 -20.631700 0.103600 2.075200 5.713600 0.000000 0.000000 0.000000 15.711800 20.507700 -16.508400 -1.483000 -7.694200 21.789000 0.819000 -16.336100 -10.653700 -0.542000 4.716900 -13.102900 -3.694300 -0.987500 -16.132000 -0.466400 -0.869400 -3.715900 1.415700 -0.555600 5.117700 -10.454700 -6.514300 1.147300 10.776100 -9.761300 9.376700 4.646000 -4.939200 3.627500 -0.000000 -0.000000 0.000000 68.666500 -43.838600 21.034800 111.489000 -58.181200 78.496400 23.787500 23.314900 -20.276100 0.000000 0.000000 0.000000 -7.125000 0.000000 0.000000 -4.797800 51.903200 0.817100 -0.000000 -0.000000 0.000000 -39.661700 -23.247100 -10.316200 -146.000200 -44.084600 -105.887100 -37.865400 -8.026600 -11.061800 0.000000 0.000000 0.000000 7.125000 0.000000 -0.000000 -7.428700 16.147400 -5.113300
8.247356 27.346447 1.168689 168.205332 -85.540827 -153.121494 0.000000 0.000000 0.000000 -18.496822 -18.168342 -16.032961 1.590320 7.954804 22.576826 0.693662 7.924377 -20.552744 0.093229 1.968643 5.419106 0.000000 0.000000 0.000000 15.600392 20.540487 -16.615291 -1.496968 -7.728659 21.892796 0.821258 -16.365876 -10.705807 -0.540327 4.709707 -13.082492 -3.780198 -1.011086 -16.069521 -0.467571 -0.896081 -3.807569 1.459192 -0.568480 4.988728 -10.439812 -6.517562 1.213626 10.604723 -9.757704 9.413501 4.592805 -4.943967 3.618718 0.000000 0.000000 0.000000 68.657551 -43.821203 21.090420 111.442413 -58.189397 78.456755 23.872310 23.359229 -20.229596 0.000000 0.000000 0.000000 -7.125000 0.000000 0.000000 -4.699273 51.868991 0.796274 0.000000 0.000000 0.000000 -39.673326 -23.158777 -10.190490 -145.975025 -44.103168 -105.869619 -37.762607 -7.904068 -10.994303 0.000000 0.000000 0.000000 7.125000 0.000000 0.000000 -7.369065 16.247433 -5.055422
8.247162 27.346771 1.170211 166.912444 -85.467250 -151.808007 0.000000 0.000000 0.000000 -18.628482 -18.173356 -16.063339 1.591904 7.958555 22.588203 0.693265 7.918723 -20.544432 0.101561 2.053495 5.653625 0.000000 0.000000 0.000000 15.448416 20.549726 -16.634047 -1.496202 -7.726788 21.887198 0.818605 -16.355553 -10.756031 -0.533743 4.681187 -13.001466 -3.905857 -1.016440 -16.075465 -0.509849 -0.884548 -3.855035 1.488153 -0.564138 4.941365 -10.347083 -6.529368 1.325904 10.426618 -9.762517 9.367482 4.527299 -4.951897 3.574345 0.000000 0.000000 0.000000 68.808119 -43.915085 21.298696 111.438144 -58.190125 78.453104 23.840056 23.320670 -20.270623 0.000000 0.000000 0.000000 -7.125000 0.000000 0.000000 -4.743175 51.906771 0.808145 0.000000 0.000000 0.000000 -39.616193 -23.063995 -10.101985 -145.984498 -44.096237 -105.876157 -37.623686 -7.850161 -10.991797 0.000000 0.000000 0.000000 7.125000 0.000000 0.000000 -7.275051 16.273257 -4.985769
8.247053 27.347306 1.172633 166.297260 -85.393904 -151.196935 0.000000 0.000000 0.000000 -18.717767 -18.150011 -16.080683 1.594104 7.963809 22.604128 0.693811 7.920496 -20.551261 0.124829 2.271453 6.256764 0.000000 0.000000 0.000000 15.362340 20.547332 -16.643031 -1.494449 -7.722498 21.874244 0.810226 -16.320306 -10.898926 -0.508245 4.568659 -12.682473 -3.962924 -1.008348 -16.099270 -0.547001 -0.861175 -3.844450 1.485370 -0.553773 4.964206 -10.273155 -6.555575 1.394669 10.293009 -9.781596 9.274235 4.476619 -4.964160 3.527632 0.000000 0.000000 0.000000 69.120293 -44.088270 21.673070 111.424919 -58.192450 78.441861 23.756573 23.250804 -20.404372 0.000000 0.000000 0.000000 -7.125000 0.000000 0.000000 -4.865298 52.033495 0.844363 0.000000 0.000000 0.000000 -39.543001 -23.028031 -10.085463 -146.056523 -44.042779 -105.926215 -37.363551 -7.825365 -10.971388 0.000000 0.000000 0.000000 7.125000 0.000000 0.000000 -7.101085 16.340253 -4.854494
